<svg width="40" height="40" viewBox="0 0 40 40" fill="none" xmlns="http://www.w3.org/2000/svg">
<path d="M25.6667 4H14.3333C13.1597 4 12.2083 4.95139 12.2083 6.125V33.0417C12.2083 34.2153 13.1597 35.1667 14.3333 35.1667H25.6667C26.8403 35.1667 27.7917 34.2153 27.7917 33.0417V6.125C27.7917 4.95139 26.8403 4 25.6667 4Z" fill="white"/>
<path d="M7.25 6.125H5.125C3.95139 6.125 3 7.07639 3 8.25V30.9167C3 32.0903 3.95139 33.0417 5.125 33.0417H7.25C8.42361 33.0417 9.375 32.0903 9.375 30.9167V8.25C9.375 7.07639 8.42361 6.125 7.25 6.125Z" fill="white"/>
<path d="M34.875 6.125H32.75C31.5764 6.125 30.625 7.07639 30.625 8.25V30.9167C30.625 32.0903 31.5764 33.0417 32.75 33.0417H34.875C36.0486 33.0417 37 32.0903 37 30.9167V8.25C37 7.07639 36.0486 6.125 34.875 6.125Z" fill="white"/>
</svg>
