<svg width="72" height="72" viewBox="0 0 72 72" fill="none" xmlns="http://www.w3.org/2000/svg">
<rect y="0.00012207" width="72" height="72" fill="#302C3F"/>
<g opacity="0.8">
<path fill-rule="evenodd" clip-rule="evenodd" d="M27.5041 15.7213H44.4998C50.764 15.7213 54.252 19.3309 54.252 25.5159V46.464C54.252 52.7505 50.764 56.279 44.4998 56.279H27.5041C21.3394 56.279 17.75 52.7505 17.75 46.464V25.5159C17.75 19.3309 21.3394 15.7213 27.5041 15.7213ZM28.052 25.1712V25.1509H34.1133C34.9873 25.1509 35.6971 25.8607 35.6971 26.7307C35.6971 27.625 34.9873 28.3347 34.1133 28.3347H28.052C27.178 28.3347 26.4702 27.625 26.4702 26.753C26.4702 25.881 27.178 25.1712 28.052 25.1712ZM28.052 37.5008H43.9506C44.8226 37.5008 45.5324 36.791 45.5324 35.919C45.5324 35.047 44.8226 34.3352 43.9506 34.3352H28.052C27.178 34.3352 26.4702 35.047 26.4702 35.919C26.4702 36.791 27.178 37.5008 28.052 37.5008ZM28.0518 46.7682H43.9504C44.7596 46.6871 45.3699 45.9956 45.3699 45.1865C45.3699 44.355 44.7596 43.6656 43.9504 43.5844H28.0518C27.4434 43.5236 26.8553 43.8075 26.5309 44.3348C26.2064 44.8417 26.2064 45.5109 26.5309 46.0382C26.8553 46.5452 27.4434 46.8493 28.0518 46.7682Z" fill="white"/>
</g>
</svg>
