<svg width="100" height="100" viewBox="0 0 100 100" fill="none" xmlns="http://www.w3.org/2000/svg">
<rect width="100" height="100" fill="#302C3F"/>
<path fill-rule="evenodd" clip-rule="evenodd" d="M36.9974 39.9013H63.0033C70.248 39.9013 76.1218 45.6456 76.1218 52.7305V67.902C76.1218 74.9869 70.248 80.7312 63.0033 80.7312H36.9974C29.7527 80.7312 23.8789 74.9869 23.8789 67.902V52.7305C23.8789 45.6456 29.7527 39.9013 36.9974 39.9013ZM49.9862 66.3781C51.5163 66.3781 52.7341 65.1871 52.7341 63.6907V56.9112C52.7341 55.4454 51.5163 54.2544 49.9862 54.2544C48.4873 54.2544 47.2694 55.4454 47.2694 56.9112V63.6907C47.2694 65.1871 48.4873 66.3781 49.9862 66.3781Z" fill="white"/>
<path opacity="0.4" d="M66.9692 35.8513V40.371C65.8763 40.0656 64.7209 39.9129 63.5342 39.9129H61.5045V35.8513C61.5045 29.652 56.352 24.6131 50.0129 24.6131C43.6738 24.6131 38.5214 29.6214 38.4901 35.7902V39.9129H36.4916C35.2737 39.9129 34.1183 40.0656 33.0254 40.4015V35.8513C33.0566 26.6898 40.6448 19.2689 49.9505 19.2689C59.381 19.2689 66.9692 26.6898 66.9692 35.8513" fill="white"/>
</svg>
