<svg width="72" height="72" viewBox="0 0 72 72" fill="none" xmlns="http://www.w3.org/2000/svg">
<rect width="72" height="72" fill="#302C3F"/>
<path opacity="0.4" d="M36.3196 58.3289C36.041 58.3289 35.7624 58.2649 35.511 58.1347L27.4085 53.9405C25.1093 52.7491 23.3108 51.412 21.9064 49.8544C18.8326 46.4478 17.1224 42.0749 17.0952 37.5387L17.0001 22.6084C16.9888 20.8853 18.101 19.3387 19.7636 18.7562L34.6411 13.5691C35.5245 13.2536 36.5099 13.2492 37.4092 13.5537L52.3433 18.5643C54.015 19.1225 55.1453 20.6581 55.1544 22.379L55.2495 37.3202C55.279 41.8498 53.6277 46.2404 50.6014 49.6845C49.2129 51.2642 47.4302 52.6211 45.1537 53.8346L37.1237 58.1237C36.8746 58.2583 36.5982 58.3267 36.3196 58.3289" fill="white"/>
<path d="M34.592 41.0509C34.1571 41.0531 33.7222 40.8965 33.3869 40.5743L29.0741 36.4265C28.4081 35.7822 28.4013 34.7364 29.0605 34.0877C29.7196 33.4369 30.7956 33.4303 31.4638 34.0723L34.5671 37.0553L42.144 29.5846C42.8054 28.9338 43.8814 28.9272 44.5473 29.5692C45.2156 30.2134 45.2224 31.2614 44.5632 31.9079L35.7902 40.5589C35.4595 40.8854 35.0269 41.0487 34.592 41.0509" fill="white"/>
</svg>
