<svg width="56" height="56" viewBox="0 0 56 56" fill="none" xmlns="http://www.w3.org/2000/svg">
<rect width="56" height="56" fill="#302C3F"/>
<path opacity="0.4" d="M44 28C44 36.8384 36.8368 44 28 44C19.1632 44 12 36.8384 12 28C12 19.1648 19.1632 12 28 12C36.8368 12 44 19.1648 44 28" fill="white"/>
<path d="M33.7173 34.1033C33.5077 34.1033 33.2965 34.0489 33.1029 33.9353L26.8213 30.1881C26.4597 29.9705 26.2373 29.5785 26.2373 29.1561V21.0809C26.2373 20.4185 26.7749 19.8809 27.4373 19.8809C28.0997 19.8809 28.6373 20.4185 28.6373 21.0809V28.4745L34.3333 31.8713C34.9013 32.2121 35.0885 32.9481 34.7493 33.5177C34.5237 33.8937 34.1253 34.1033 33.7173 34.1033" fill="white"/>
</svg>
