<svg width="72" height="72" viewBox="0 0 72 72" fill="none" xmlns="http://www.w3.org/2000/svg">
<path d="M0 0H72V72H0V0Z" fill="#302C3F"/>
<g opacity="0.4">
<mask id="mask0" mask-type="alpha" maskUnits="userSpaceOnUse" x="17" y="12" width="38" height="48">
<path fill-rule="evenodd" clip-rule="evenodd" d="M27.3983 14.5376C23.4745 14.5212 20.3032 17.5264 20.3151 21.2499L20.4086 50.6194C20.4204 54.3429 23.6109 57.3747 27.5347 57.3911L44.6016 57.4626C48.5254 57.479 51.6966 54.4738 51.6848 50.7502L51.5913 21.3808C51.5794 17.6573 48.389 14.6254 44.4652 14.609L27.3983 14.5376ZM24.6397 21.268C24.635 19.811 25.876 18.635 27.4114 18.6415L44.4782 18.7129C46.0136 18.7193 47.2621 19.9057 47.2667 21.3627L47.3602 50.7321C47.3648 52.1892 46.1239 53.3651 44.5885 53.3587L27.5216 53.2873C25.9862 53.2809 24.7378 52.0945 24.7332 50.6375L24.6397 21.268ZM36.0733 50.745C38.0732 50.7533 39.6895 49.2216 39.6835 47.3238C39.6774 45.426 38.0513 43.8807 36.0514 43.8723C34.0515 43.864 32.4352 45.3957 32.4412 47.2935C32.4472 49.1913 34.0734 50.7366 36.0733 50.745Z" fill="white"/>
</mask>
<g mask="url(#mask0)">
<rect width="54.358" height="45.6357" transform="matrix(-0.997522 -0.0703521 -0.0703521 0.997522 69.7822 16.3777)" fill="white"/>
</g>
</g>
<circle cx="36" cy="47.3638" r="4" fill="white"/>
</svg>
