<svg width="72" height="72" viewBox="0 0 72 72" fill="none" xmlns="http://www.w3.org/2000/svg">
<rect width="72" height="72" fill="#302C3F"/>
<path opacity="0.4" d="M35.8843 54.7362C31.3182 51.9159 27.0736 48.5904 23.2282 44.8205C20.5134 42.1288 18.4401 38.8422 17.1667 35.2118C14.8915 28.1317 17.54 20.0402 24.9346 17.6381C28.8376 16.4123 33.0825 17.1648 36.3465 19.6609V19.6609C39.6117 17.1676 43.8552 16.4154 47.7584 17.6381C55.153 20.0402 57.8193 28.1317 55.544 35.2118C54.281 38.8388 52.22 42.1251 49.5181 44.8205C45.6692 48.5862 41.425 51.9114 36.862 54.7362L36.3643 55.0613L35.8843 54.7362Z" fill="white"/>
<path d="M48.7939 31.0597V31.0597C48.3921 31.0339 48.018 30.8331 47.7591 30.5044C47.5003 30.1757 47.3794 29.7481 47.4248 29.3216V29.3216C47.4683 27.9169 46.669 26.6383 45.4365 26.1408C44.6549 25.9275 44.1816 25.081 44.3771 24.2463C44.5626 23.4249 45.3317 22.9142 46.1047 23.0991C46.2023 23.1153 46.2962 23.1506 46.3818 23.2034C48.8532 24.1544 50.4533 26.7141 50.3259 29.5128C50.3219 29.937 50.1565 30.3412 49.8677 30.6329C49.5788 30.9246 49.1913 31.0786 48.7939 31.0597Z" fill="white"/>
</svg>
