<svg width="72" height="72" viewBox="0 0 72 72" fill="none" xmlns="http://www.w3.org/2000/svg">
<rect width="72" height="72" fill="#302C3F"/>
<path opacity="0.4" d="M16.1387 34.4026C16.2397 39.1263 16.5225 47.2058 16.563 48.0968C16.7064 50.0021 17.4358 51.9275 18.5712 53.2852C20.1512 55.1904 22.0968 56.041 24.8102 56.041C28.5601 56.0612 32.6938 56.0612 36.7083 56.0612C40.739 56.0612 44.6505 56.0612 47.9538 56.041C50.6289 56.041 52.6351 55.1682 54.1949 53.2852C55.3303 51.9275 56.0597 49.9819 56.1627 48.0968C56.2031 47.3473 56.4052 38.5767 56.5264 34.4026H16.1387Z" fill="white"/>
<path d="M34.8174 43.1017V45.7161C34.8174 46.5526 35.4962 47.2314 36.3327 47.2314C37.1691 47.2314 37.848 46.5526 37.848 45.7161V43.1017C37.848 42.2653 37.1691 41.5864 36.3327 41.5864C35.4962 41.5864 34.8174 42.2653 34.8174 43.1017" fill="white"/>
<path fill-rule="evenodd" clip-rule="evenodd" d="M32.7281 41.4294C32.5261 42.1628 31.821 42.6315 31.0573 42.5305C25.9032 41.8112 20.9775 39.9828 16.8195 37.237C16.3932 36.9582 16.1387 36.4814 16.1387 35.9723V28.9696C16.1387 24.7268 19.5976 21.2759 23.8505 21.2759H27.8246C28.2045 18.3423 30.6896 16.0613 33.7242 16.0613H38.9409C41.9735 16.0613 44.4606 18.3423 44.8404 21.2759H48.8347C53.0756 21.2759 56.5264 24.7268 56.5264 28.9696V35.9723C56.5264 36.4814 56.2698 36.9562 55.8475 37.237C51.6815 39.9949 46.7355 41.8314 41.5472 42.5487C41.4765 42.5588 41.4078 42.5628 41.3391 42.5628C40.6542 42.5628 40.042 42.1001 39.8702 41.4213C39.4621 39.8131 38.0014 38.6877 36.3224 38.6877C34.6213 38.6877 33.1767 39.7888 32.7281 41.4294ZM38.9404 19.0919H33.7237C32.364 19.0919 31.2285 20.0213 30.8891 21.276H41.773C41.4336 20.0213 40.2981 19.0919 38.9404 19.0919Z" fill="white"/>
</svg>
