<svg width="20" height="20" viewBox="0 0 20 20" fill="none" xmlns="http://www.w3.org/2000/svg">
<path fill-rule="evenodd" clip-rule="evenodd" d="M2 8.31776C2 3.71789 5.84388 0 10.4934 0C15.1561 0 19 3.71789 19 8.31776C19 10.6357 18.157 12.7876 16.7695 14.6116C15.2388 16.6235 13.3522 18.3765 11.2285 19.7524C10.7425 20.0704 10.3039 20.0944 9.77045 19.7524C7.63474 18.3765 5.74809 16.6235 4.2305 14.6116C2.84198 12.7876 2 10.6357 2 8.31776ZM7.69423 8.57675C7.69423 10.1177 8.95166 11.3297 10.4934 11.3297C12.0362 11.3297 13.3058 10.1177 13.3058 8.57675C13.3058 7.0478 12.0362 5.77683 10.4934 5.77683C8.95166 5.77683 7.69423 7.0478 7.69423 8.57675Z" fill="white"/>
</svg>
