<svg width="72" height="72" viewBox="0 0 72 72" fill="none" xmlns="http://www.w3.org/2000/svg">
<rect width="72" height="72" fill="#302C3F"/>
<path d="M16.3691 57.0329V28.9888H33.1956V57.0329" stroke="white" stroke-width="2" stroke-linecap="round" stroke-linejoin="round"/>
<path d="M21.9775 57.0329V34.5977" stroke="white" stroke-width="2" stroke-linecap="round" stroke-linejoin="round"/>
<path d="M27.5869 57.0329V34.5977" stroke="white" stroke-width="2" stroke-linecap="round" stroke-linejoin="round"/>
<path d="M16.3691 28.9888L24.7824 19.1733L33.1956 28.9888" stroke="white" stroke-width="2" stroke-linecap="round" stroke-linejoin="round"/>
<path d="M24.7822 14.9668V19.1734" stroke="white" stroke-width="2" stroke-linecap="round" stroke-linejoin="round"/>
<path d="M55.6311 57.0332V34.2071C55.631 33.9127 55.5384 33.6258 55.3663 33.3869C55.1941 33.148 54.9513 32.9693 54.672 32.876L40.65 28.202C40.4392 28.1313 40.2145 28.1119 39.9947 28.1453C39.7748 28.1787 39.5661 28.264 39.3858 28.3941C39.2054 28.5241 39.0587 28.6953 38.9576 28.8934C38.8566 29.0915 38.8042 29.3108 38.8047 29.5331V57.0332" stroke="white" stroke-width="2" stroke-linecap="round" stroke-linejoin="round"/>
<path d="M50.0225 52.8264V54.2286" stroke="white" stroke-width="2" stroke-linecap="round" stroke-linejoin="round"/>
<path d="M50.0225 45.8152V47.2174" stroke="white" stroke-width="2" stroke-linecap="round" stroke-linejoin="round"/>
<path d="M50.0225 38.8042V40.2064" stroke="white" stroke-width="2" stroke-linecap="round" stroke-linejoin="round"/>
<path d="M44.4131 52.8264V54.2286" stroke="white" stroke-width="2" stroke-linecap="round" stroke-linejoin="round"/>
<path d="M44.4131 45.8152V47.2174" stroke="white" stroke-width="2" stroke-linecap="round" stroke-linejoin="round"/>
<path d="M44.4131 38.8042V40.2064" stroke="white" stroke-width="2" stroke-linecap="round" stroke-linejoin="round"/>
</svg>
