<svg width="72" height="72" viewBox="0 0 72 72" fill="none" xmlns="http://www.w3.org/2000/svg">
<rect width="72" height="72" fill="#302C3F"/>
<path d="M38.3957 17.2759L43.1024 26.7343C43.4491 27.4196 44.1109 27.8954 44.8742 28.0012L55.4463 29.5409C56.0637 29.6276 56.624 29.9534 57.0025 30.4504C57.3767 30.9411 57.5374 31.5629 57.4465 32.1741C57.3725 32.6817 57.1336 33.1513 56.7678 33.5108L49.1073 40.9367C48.547 41.4549 48.2932 42.2226 48.4286 42.9734L50.3146 53.4132C50.5155 54.6738 49.6803 55.8624 48.4286 56.1014C47.9126 56.1839 47.384 56.0972 46.9189 55.8603L37.4886 50.9471C36.7888 50.5939 35.962 50.5939 35.2622 50.9471L25.8319 55.8603C24.6732 56.4758 23.2376 56.057 22.5927 54.9149C22.3537 54.4601 22.2692 53.942 22.3474 53.4365L24.2335 42.9946C24.3688 42.2459 24.1129 41.4739 23.5547 40.9557L15.8942 33.5341C14.9829 32.6542 14.9555 31.2055 15.8329 30.2939C15.852 30.2748 15.8731 30.2537 15.8942 30.2325C16.2579 29.8624 16.7358 29.6276 17.2517 29.5663L27.8237 28.0245C28.5849 27.9166 29.2467 27.4449 29.5956 26.7554L34.1331 17.2759C34.5369 16.4637 35.3742 15.9582 36.2834 15.9794H36.5668C37.3554 16.0746 38.0426 16.5631 38.3957 17.2759" fill="white"/>
</svg>
