<svg width="72" height="72" viewBox="0 0 72 72" fill="none" xmlns="http://www.w3.org/2000/svg">
<rect width="72" height="72" fill="#302C3F"/>
<path opacity="0.4" d="M20.022 35.8077C20.1747 36.2253 20.4869 36.5652 20.8899 36.7529C21.1164 36.8617 21.364 36.919 21.6152 36.9208C21.8075 36.9206 21.9984 36.8871 22.1793 36.8217L24.5414 35.9756C24.7782 35.8935 24.9926 35.7573 25.1675 35.5777C25.3423 35.3982 25.4729 35.1803 25.5487 34.9414L26.1531 32.3023C26.1684 32.2326 26.2011 32.168 26.2483 32.1145C26.2954 32.0611 26.3555 32.0205 26.4227 31.9966C26.4899 31.9728 26.562 31.9664 26.6324 31.9782C26.7027 31.99 26.7689 32.0195 26.8246 32.0639L28.9635 33.7226C29.1742 33.8604 29.4145 33.9465 29.6648 33.9739C29.9151 34.0013 30.1683 33.9693 30.4039 33.8804L34.4213 32.4433C34.5265 32.4066 34.6418 32.4128 34.7424 32.4606C34.8429 32.5083 34.9206 32.5938 34.9586 32.6985L38.746 43.2936C38.7668 43.351 38.7747 43.4122 38.7693 43.4729C38.7639 43.5337 38.7453 43.5925 38.7147 43.6453C38.6842 43.6981 38.6425 43.7436 38.5925 43.7785C38.5425 43.8135 38.4854 43.8371 38.4254 43.8476C36.6012 44.0716 34.8469 44.6868 33.2823 45.651C31.7177 46.6153 30.3797 47.9059 29.3597 49.4348C29.3303 49.4868 29.3124 49.5444 29.3071 49.6039C29.3019 49.6634 29.3095 49.7234 29.3294 49.7797C29.3493 49.836 29.381 49.8874 29.4224 49.9304C29.4638 49.9734 29.514 50.0071 29.5695 50.0291C29.8281 50.1372 30.1052 50.1942 30.3854 50.197C30.9836 50.1362 31.5636 49.9563 32.0912 49.668C32.6188 49.3797 33.0834 48.9887 33.4577 48.5181C33.8546 48.0026 34.3626 47.5831 34.9439 47.2907C35.5251 46.9983 36.1648 46.8406 36.8154 46.8292C37.6059 46.8294 38.3803 47.0523 39.0499 47.4725C39.7195 47.8926 40.2571 48.493 40.6011 49.2048L40.6213 49.2417C40.7912 49.5268 41.0302 49.7644 41.3164 49.9326C41.6025 50.1007 41.9264 50.194 42.2581 50.2037C42.7142 50.1807 43.1591 50.054 43.5588 49.8332C43.9585 49.6124 44.3026 49.3033 44.5648 48.9294C44.9261 48.301 45.4439 47.7768 46.0678 47.4079C46.6918 47.0391 47.4007 46.8381 48.1254 46.8246C48.8501 46.811 49.566 46.9854 50.2033 47.3308C50.8406 47.6761 51.3776 48.1806 51.762 48.7951L51.7822 48.8237C51.8946 48.9748 52.9238 50.3346 53.9092 50.1835C54.4783 50.111 55.0563 50.1573 55.6065 50.3195C55.6697 50.3383 55.7365 50.3418 55.8013 50.33C55.8662 50.3181 55.9273 50.2911 55.9798 50.2512C56.0323 50.2114 56.0746 50.1597 56.1034 50.1004C56.1322 50.041 56.1466 49.9758 56.1454 49.9099V44.3697C56.1454 44.1471 56.057 43.9336 55.8996 43.7762C55.7422 43.6188 55.5286 43.5303 55.306 43.5303H42.693C42.6064 43.5304 42.522 43.5036 42.4514 43.4537C42.3807 43.4038 42.3273 43.3332 42.2984 43.2516L38.1165 31.5602C38.0793 31.4554 38.0854 31.3401 38.1332 31.2397C38.1811 31.1392 38.2668 31.0619 38.3716 31.0247L42.4008 29.5843C42.6376 29.5022 42.852 29.3659 43.0269 29.1864C43.2018 29.0069 43.3323 28.789 43.4081 28.5501L44.0108 25.911C44.027 25.8422 44.06 25.7786 44.1069 25.7259C44.1538 25.6731 44.2131 25.6329 44.2794 25.6088C44.3458 25.585 44.417 25.5784 44.4866 25.5896C44.5561 25.6007 44.6218 25.6293 44.6773 25.6726L46.8178 27.3329C47.0291 27.4687 47.269 27.5537 47.5187 27.5811C47.7683 27.6084 48.0209 27.5775 48.2566 27.4908L50.6271 26.6413C51.0459 26.4914 51.388 26.1814 51.5785 25.7794C51.7689 25.3775 51.792 24.9164 51.6428 24.4974L51.3591 23.705C50.7684 22.1115 49.7533 20.7098 48.4235 19.6517C47.0937 18.5935 45.4999 17.9191 43.8144 17.7015C40.4797 17.1822 37.0702 17.4384 33.8505 18.4502C33.749 18.4776 33.641 18.4658 33.5477 18.4174C33.4545 18.3689 33.3828 18.2871 33.3469 18.1883L32.8902 16.9426C32.7306 16.5366 32.4191 16.2087 32.0218 16.0284C31.6245 15.8481 31.1726 15.8295 30.7619 15.9766C30.3511 16.1237 30.0138 16.4249 29.8213 16.8165C29.6288 17.208 29.5963 17.6591 29.7307 18.0742L30.1756 19.3182C30.2113 19.4186 30.2075 19.5289 30.1652 19.6267C30.1228 19.7245 30.0449 19.8027 29.9473 19.8453C26.8167 21.1069 24.0182 23.0714 21.768 25.587C20.603 26.8235 19.7982 28.3551 19.4407 30.016C19.0833 31.6769 19.1868 33.4039 19.7399 35.0102L20.022 35.8077Z" fill="white"/>
<path d="M18.2323 56.1216C17.9236 56.1211 17.6152 56.101 17.309 56.0612C16.8675 56.0022 16.4676 55.7702 16.1971 55.4163C15.9267 55.0624 15.8079 54.6156 15.8669 54.1741C15.9259 53.7327 16.1578 53.3327 16.5117 53.0623C16.8656 52.7918 17.3124 52.673 17.7539 52.732C20.5642 53.098 23.0976 50.0006 23.1261 49.972C23.3011 49.7725 23.5192 49.6155 23.7638 49.5127C24.0085 49.4099 24.2733 49.3642 24.5383 49.3789C24.8032 49.3936 25.0614 49.4684 25.2931 49.5977C25.5249 49.7269 25.7242 49.9071 25.8761 50.1248C26.3759 50.875 27.0434 51.4988 27.8257 51.9469C28.6079 52.395 29.4837 52.6552 30.3837 52.7068C31.3718 52.6418 32.3351 52.3689 33.2105 51.9061C34.0859 51.4432 34.8538 50.8007 35.4639 50.0207C35.6466 49.8032 35.8794 49.6332 36.1422 49.5254C36.4051 49.4175 36.6901 49.3749 36.973 49.4013C37.2559 49.4277 37.5281 49.5223 37.7664 49.677C38.0048 49.8316 38.202 50.0417 38.3414 50.2893C38.7228 51.0032 39.2868 51.6031 39.9757 52.0278C40.6647 52.4525 41.454 52.6868 42.2631 52.7068C43.1619 52.6849 44.0415 52.4421 44.8244 52.0001C45.6072 51.558 46.2693 50.9301 46.7523 50.1718C46.9092 49.9351 47.1214 49.7401 47.3705 49.6037C47.6196 49.4673 47.8981 49.3936 48.1821 49.389C48.466 49.3844 48.7469 49.4489 49.0003 49.5771C49.2537 49.7053 49.4721 49.8933 49.6366 50.1248C49.6517 50.1449 51.5185 53.0208 54.2466 52.6649C54.6881 52.6059 55.1349 52.7247 55.4888 52.9951C55.8427 53.2656 56.0747 53.6655 56.1337 54.107C56.1927 54.5485 56.0739 54.9953 55.8034 55.3492C55.533 55.703 55.133 55.935 54.6915 55.994C53.5661 56.1263 52.4254 56.0048 51.3531 55.6385C50.2808 55.2721 49.3042 54.6702 48.495 53.877C48.4182 53.808 48.3187 53.7698 48.2154 53.7698C48.1122 53.7698 48.0127 53.808 47.9359 53.877C46.3816 55.2836 44.3595 56.0616 42.2631 56.0595C41.2708 56.0675 40.2867 55.8787 39.3678 55.5041C38.4488 55.1295 37.6133 54.5765 36.9093 53.877C36.8362 53.8051 36.7391 53.7626 36.6366 53.7577C36.5341 53.7527 36.4334 53.7856 36.3537 53.8501C34.6761 55.2508 32.5689 56.0337 30.3837 56.0679C28.242 56.0433 26.1878 55.2145 24.6287 53.746C24.5534 53.6786 24.4563 53.6404 24.3552 53.6386C24.2541 53.6367 24.1558 53.6713 24.078 53.736C22.4627 55.1813 20.3976 56.024 18.2323 56.1216V56.1216Z" fill="white"/>
</svg>
