<svg width="56" height="56" viewBox="0 0 56 56" fill="none" xmlns="http://www.w3.org/2000/svg">
<rect width="56" height="56" fill="#302C3F"/>
<path opacity="0.4" d="M28.1628 46.8237C27.9298 46.8237 27.6967 46.7701 27.4863 46.6612L20.7078 43.1523C18.7843 42.1556 17.2796 41.037 16.1047 39.7339C13.5332 36.8839 12.1024 33.2255 12.0797 29.4305L12.0001 16.9398C11.9906 15.4983 12.9211 14.2043 14.312 13.717L26.7586 9.37753C27.4977 9.11357 28.322 9.10988 29.0744 9.36461L41.5683 13.5565C42.9669 14.0235 43.9125 15.3081 43.9201 16.7479L43.9997 29.2478C44.0243 33.0372 42.6428 36.7104 40.1111 39.5917C38.9494 40.9133 37.458 42.0485 35.5535 43.0637L28.8356 46.652C28.6271 46.7646 28.3959 46.8218 28.1628 46.8237" fill="white"/>
<path d="M26.7174 32.3688C26.3536 32.3707 25.9897 32.2396 25.7093 31.9701L22.1011 28.5C21.544 27.961 21.5383 27.0861 22.0898 26.5434C22.6412 25.9989 23.5413 25.9934 24.1004 26.5305L26.6966 29.0261L33.0355 22.7761C33.5888 22.2316 34.489 22.2261 35.0461 22.7632C35.6052 23.3022 35.6108 24.1789 35.0594 24.7198L27.7199 31.9572C27.4432 32.2304 27.0813 32.367 26.7174 32.3688" fill="white"/>
</svg>
