<svg width="56" height="56" viewBox="0 0 56 56" fill="none" xmlns="http://www.w3.org/2000/svg">
<rect width="56" height="56" fill="#302C3F"/>
<path opacity="0.4" fill-rule="evenodd" clip-rule="evenodd" d="M20.0354 21.8142H35.9646C40.4022 21.8142 44 25.3327 44 29.6724V38.9653C44 43.305 40.4022 46.8235 35.9646 46.8235H20.0354C15.5978 46.8235 12 43.305 12 38.9653V29.6724C12 25.3327 15.5978 21.8142 20.0354 21.8142ZM27.9903 38.0319C28.9276 38.0319 29.6735 37.3024 29.6735 36.3859V32.2332C29.6735 31.3354 28.9276 30.6059 27.9903 30.6059C27.0722 30.6059 26.3262 31.3354 26.3262 32.2332V36.3859C26.3262 37.3024 27.0722 38.0319 27.9903 38.0319Z" fill="white"/>
<path d="M38.3959 19.3336V22.102C37.7264 21.915 37.0187 21.8214 36.2919 21.8214H35.0486V19.3336C35.0486 15.5364 31.8926 12.45 28.0098 12.45C24.1269 12.45 20.9709 15.5177 20.9518 19.2962V21.8214H19.7276C18.9817 21.8214 18.2739 21.915 17.6045 22.1207V19.3336C17.6236 13.7219 22.2716 9.17651 27.9715 9.17651C33.7479 9.17651 38.3959 13.7219 38.3959 19.3336" fill="white"/>
</svg>
