<svg width="72" height="72" viewBox="0 0 72 72" fill="none" xmlns="http://www.w3.org/2000/svg">
<rect width="72" height="72" fill="#302C3F"/>
<path opacity="0.4" fill-rule="evenodd" clip-rule="evenodd" d="M26.9755 28.991H45.0249C50.053 28.991 54.1297 32.9778 54.1297 37.8951V48.4248C54.1297 53.3421 50.053 57.3289 45.0249 57.3289H26.9755C21.9473 57.3289 17.8706 53.3421 17.8706 48.4248V37.8951C17.8706 32.9778 21.9473 28.991 26.9755 28.991ZM35.9892 47.3672C37.0512 47.3672 37.8964 46.5406 37.8964 45.5021V40.7967C37.8964 39.7794 37.0512 38.9528 35.9892 38.9528C34.9489 38.9528 34.1036 39.7794 34.1036 40.7967V45.5021C34.1036 46.5406 34.9489 47.3672 35.9892 47.3672Z" fill="white"/>
<path d="M47.7799 26.1801V29.317C47.0213 29.105 46.2194 28.9991 45.3958 28.9991H43.9871V26.1801C43.9871 21.8775 40.411 18.3803 36.0114 18.3803C31.6117 18.3803 28.0357 21.8563 28.014 26.1377V28.9991H26.6269C25.7817 28.9991 24.9798 29.105 24.2212 29.3382V26.1801C24.2429 19.8216 29.5094 14.6711 35.968 14.6711C42.5133 14.6711 47.7799 19.8216 47.7799 26.1801" fill="white"/>
</svg>
