<svg width="72" height="72" viewBox="0 0 72 72" fill="none" xmlns="http://www.w3.org/2000/svg">
<rect width="72" height="72" fill="#302C3F"/>
<path opacity="0.4" d="M36.1946 58.5C35.916 58.5 35.6374 58.436 35.386 58.3058L27.2835 54.1116C24.9843 52.9202 23.1858 51.5832 21.7814 50.0255C18.7076 46.6189 16.9974 42.246 16.9702 37.7098L16.8751 22.7796C16.8638 21.0564 17.976 19.5098 19.6386 18.9273L34.5161 13.7403C35.3995 13.4248 36.3849 13.4204 37.2842 13.7248L52.2183 18.7354C53.89 19.2936 55.0203 20.8292 55.0294 22.5501L55.1245 37.4914C55.154 42.021 53.5027 46.4115 50.4764 49.8556C49.0879 51.4353 47.3052 52.7922 45.0287 54.0057L36.9987 58.2948C36.7496 58.4294 36.4732 58.4978 36.1946 58.5" fill="white"/>
<path d="M34.4675 41.2221C34.0326 41.2243 33.5976 41.0676 33.2624 40.7455L28.9495 36.5976C28.2836 35.9533 28.2768 34.9076 28.936 34.2589C29.5951 33.608 30.6711 33.6014 31.3393 34.2434L34.4426 37.2264L42.0195 29.7558C42.6809 29.1049 43.7569 29.0983 44.4228 29.7403C45.0911 30.3846 45.0978 31.4326 44.4387 32.079L35.6657 40.73C35.335 41.0566 34.9024 41.2198 34.4675 41.2221" fill="white"/>
</svg>
