<svg width="72" height="72" viewBox="0 0 72 72" fill="none" xmlns="http://www.w3.org/2000/svg">
<rect width="72" height="72" fill="#302C3F"/>
<path d="M56.0009 55.8056C51.653 56.7117 48.9399 52.3638 48.9399 52.3638C48.2671 53.4334 47.3398 54.3198 46.2409 54.9437C45.142 55.5677 43.9057 55.9098 42.6424 55.9395C41.3863 55.8792 40.162 55.5241 39.0686 54.9029C37.9751 54.2817 37.0433 53.4119 36.3484 52.3638C35.6757 53.4332 34.7487 54.3194 33.6502 54.9433C32.5516 55.5673 31.3156 55.9095 30.0526 55.9395C28.7975 55.8791 27.5742 55.5239 26.4819 54.9027C25.3896 54.2815 24.459 53.4117 23.7655 52.3638C23.7655 52.3638 20.2872 56.7847 16.0176 55.8769" stroke="white" stroke-width="2" stroke-linecap="round" stroke-linejoin="round"/>
<path d="M56.0009 48.849C51.653 49.7551 48.9399 45.4072 48.9399 45.4072C48.2671 46.4769 47.3398 47.3632 46.2409 47.9872C45.142 48.6111 43.9057 48.9532 42.6424 48.9829C41.3863 48.9227 40.162 48.5676 39.0686 47.9464C37.9751 47.3252 37.0433 46.4554 36.3484 45.4072C35.6757 46.4766 34.7487 47.3629 33.6502 47.9868C32.5516 48.6107 31.3156 48.953 30.0526 48.9829C28.7975 48.9226 27.5742 48.5674 26.4819 47.9461C25.3896 47.3249 24.459 46.4551 23.7655 45.4072C23.7655 45.4072 20.2872 49.8282 16.0176 48.9203" stroke="white" stroke-width="2" stroke-linecap="round" stroke-linejoin="round"/>
<path d="M26.4346 15.9998V47.9516" stroke="white" stroke-width="2" stroke-linecap="round" stroke-linejoin="round"/>
<path d="M45.5654 15.9998V48.3499" stroke="white" stroke-width="2" stroke-linecap="round" stroke-linejoin="round"/>
<path d="M16 36.8699H56.0007" stroke="white" stroke-width="2" stroke-linecap="round" stroke-linejoin="round"/>
<path d="M35.1309 36.8696C26.4351 32.5217 26.4351 19.478 26.4351 19.478C26.4351 19.478 26.4351 32.5217 17.7393 36.8696" stroke="white" stroke-width="2" stroke-linecap="round" stroke-linejoin="round"/>
<path d="M54.2617 36.8696C45.5659 32.5217 45.5659 19.478 45.5659 19.478C45.5659 19.478 45.5659 32.5217 36.8701 36.8696" stroke="white" stroke-width="2" stroke-linecap="round" stroke-linejoin="round"/>
</svg>
