<svg width="72" height="72" viewBox="0 0 72 72" fill="none" xmlns="http://www.w3.org/2000/svg">
<rect width="72" height="72" fill="#302C3F"/>
<path opacity="0.4" d="M58.7661 36C58.7661 48.5758 48.5738 58.7658 36.0002 58.7658C23.4266 58.7658 13.2344 48.5758 13.2344 36C13.2344 23.4287 23.4266 13.2341 36.0002 13.2341C48.5738 13.2341 58.7661 23.4287 58.7661 36" fill="white"/>
<path d="M44.1357 44.6841C43.8375 44.6841 43.537 44.6067 43.2615 44.445L34.3236 39.1133C33.8091 38.8037 33.4927 38.2459 33.4927 37.6449V26.1549C33.4927 25.2124 34.2576 24.4475 35.2001 24.4475C36.1426 24.4475 36.9076 25.2124 36.9076 26.1549V36.675L45.0122 41.5082C45.8204 41.9932 46.0867 43.0404 45.6041 43.8508C45.2831 44.3858 44.7162 44.6841 44.1357 44.6841" fill="white"/>
</svg>
