<svg width="17" height="17" viewBox="0 0 17 17" fill="none" xmlns="http://www.w3.org/2000/svg">
<path d="M1 7.31579V4.15789C1 3.73913 1.17559 3.33752 1.48816 3.04141C1.80072 2.7453 2.22464 2.57895 2.66667 2.57895H4.33333M1 7.31579V14.4211C1 14.8398 1.17559 15.2414 1.48816 15.5375C1.80072 15.8336 2.22464 16 2.66667 16H14.3333C14.7754 16 15.1993 15.8336 15.5118 15.5375C15.8244 15.2414 16 14.8398 16 14.4211V7.31579M1 7.31579H16M4.33333 2.57895V1M4.33333 2.57895V4.15789M16 7.31579V4.15789C16 3.73913 15.8244 3.33752 15.5118 3.04141C15.1993 2.7453 14.7754 2.57895 14.3333 2.57895H13.9167M11 2.57895V1M11 2.57895V4.15789M11 2.57895H7.25" stroke="#D9D7E6" stroke-width="1.8" stroke-linecap="round" stroke-linejoin="round"/>
</svg>
