<svg width="40" height="41" viewBox="0 0 40 41" fill="none" xmlns="http://www.w3.org/2000/svg">
<path d="M20 11.8546C22.4853 11.8546 24.5 9.83983 24.5 7.35455C24.5 4.86927 22.4853 2.85455 20 2.85455C17.5147 2.85455 15.5 4.86927 15.5 7.35455C15.5 9.83983 17.5147 11.8546 20 11.8546Z" fill="white"/>
<path d="M20 38.8546C22.4853 38.8546 24.5 36.8398 24.5 34.3546C24.5 31.8693 22.4853 29.8546 20 29.8546C17.5147 29.8546 15.5 31.8693 15.5 34.3546C15.5 36.8398 17.5147 38.8546 20 38.8546Z" fill="white"/>
<path d="M33.5 25.3546C35.9853 25.3546 38 23.3398 38 20.8546C38 18.3693 35.9853 16.3546 33.5 16.3546C31.0147 16.3546 29 18.3693 29 20.8546C29 23.3398 31.0147 25.3546 33.5 25.3546Z" fill="white"/>
<path d="M6.5 25.3546C8.98528 25.3546 11 23.3398 11 20.8546C11 18.3693 8.98528 16.3546 6.5 16.3546C4.01472 16.3546 2 18.3693 2 20.8546C2 23.3398 4.01472 25.3546 6.5 25.3546Z" fill="white"/>
<path d="M26.3108 31.0636C26.228 31.1151 26.1685 31.1968 26.1447 31.2913C26.1209 31.3859 26.1347 31.486 26.1833 31.5706L27.3113 33.5206C27.3364 33.5638 27.3699 33.6016 27.4098 33.6317C27.4498 33.6618 27.4953 33.6837 27.5438 33.6961C27.5922 33.7086 27.6427 33.7111 27.6922 33.7037C27.7417 33.6962 27.7892 33.6788 27.8318 33.6526C29.854 32.4119 31.5546 30.7112 32.7953 28.6891C32.8215 28.6464 32.8389 28.599 32.8464 28.5495C32.8538 28.5 32.8513 28.4495 32.8388 28.4011C32.8264 28.3526 32.8045 28.3071 32.7744 28.2671C32.7443 28.2272 32.7065 28.1937 32.6633 28.1686L30.7133 27.0406C30.6287 26.992 30.5286 26.9782 30.434 27.002C30.3395 27.0257 30.2578 27.0853 30.2063 27.1681C29.2255 28.7496 27.8923 30.0828 26.3108 31.0636V31.0636Z" fill="white"/>
<path d="M30.2078 14.5441C30.2593 14.6268 30.341 14.6864 30.4355 14.7101C30.5301 14.7339 30.6302 14.7201 30.7148 14.6716L32.6648 13.5436C32.708 13.5184 32.7458 13.4849 32.7759 13.445C32.806 13.405 32.8279 13.3595 32.8403 13.3111C32.8528 13.2626 32.8553 13.2121 32.8479 13.1626C32.8404 13.1131 32.823 13.0657 32.7968 13.0231C31.5557 11.0007 29.8545 9.30003 27.8318 8.05955C27.7892 8.0333 27.7417 8.01592 27.6922 8.00844C27.6427 8.00097 27.5922 8.00356 27.5438 8.01605C27.4953 8.0284 27.4498 8.05027 27.4098 8.08041C27.3699 8.11054 27.3364 8.14832 27.3113 8.19155L26.1833 10.1416C26.1347 10.2261 26.1209 10.3262 26.1447 10.4208C26.1685 10.5154 26.228 10.597 26.3108 10.6486C27.8928 11.6291 29.2266 12.9624 30.2078 14.5441V14.5441Z" fill="white"/>
<path d="M7.20494 13.023C7.17869 13.0657 7.1613 13.1131 7.15383 13.1626C7.14636 13.2121 7.14894 13.2626 7.16144 13.311C7.17378 13.3595 7.19566 13.405 7.22579 13.445C7.25593 13.4849 7.29371 13.5184 7.33694 13.5435L9.28694 14.6715C9.37205 14.7219 9.47358 14.7368 9.56958 14.713C9.66557 14.6891 9.74832 14.6284 9.79994 14.544C10.7814 12.9604 12.1163 11.6255 13.6999 10.644C13.7827 10.5925 13.8422 10.5108 13.866 10.4163C13.8898 10.3217 13.876 10.2216 13.8274 10.137L12.6994 8.18705C12.6743 8.14382 12.6408 8.10603 12.6008 8.0759C12.5609 8.04577 12.5154 8.02389 12.4669 8.01155C12.4185 7.99905 12.368 7.99646 12.3185 8.00394C12.269 8.01141 12.2215 8.0288 12.1789 8.05505C10.1524 9.29568 8.44802 10.998 7.20494 13.023V13.023Z" fill="white"/>
<path d="M9.80004 27.1651C9.74849 27.0823 9.66684 27.0227 9.57228 26.999C9.47771 26.9752 9.37761 26.989 9.29304 27.0376L7.34304 28.1656C7.29981 28.1907 7.26203 28.2242 7.2319 28.2641C7.20176 28.3041 7.17989 28.3496 7.16754 28.3981C7.15505 28.4465 7.15246 28.497 7.15993 28.5465C7.16741 28.596 7.18479 28.6434 7.21104 28.6861C8.45001 30.7076 10.1485 32.4081 12.1685 33.6496C12.2112 33.6758 12.2586 33.6932 12.3081 33.7007C12.3576 33.7081 12.4081 33.7056 12.4565 33.6931C12.505 33.6807 12.5505 33.6588 12.5905 33.6287C12.6304 33.5986 12.6639 33.5608 12.689 33.5176L13.817 31.5676C13.8656 31.483 13.8794 31.3829 13.8556 31.2883C13.8319 31.1938 13.7723 31.1121 13.6895 31.0606C12.1102 30.0791 10.7791 28.7459 9.80004 27.1651V27.1651Z" fill="white"/>
</svg>
