<svg width="72" height="72" viewBox="0 0 72 72" fill="none" xmlns="http://www.w3.org/2000/svg">
<rect width="72" height="72" fill="#302C3F"/>
<path opacity="0.4" fill-rule="evenodd" clip-rule="evenodd" d="M42.4215 25.3338V23.9619C42.4215 20.5365 39.5487 17.75 36.019 17.75C34.3941 17.75 32.6886 18.3829 31.4746 19.5481C30.2585 20.7173 29.5848 22.2728 29.5784 23.9332V25.3338H42.4215ZM26.4005 25.3338V23.9619C26.4111 21.4365 27.4195 19.1063 29.2373 17.3617C31.053 15.613 33.4004 14.7355 36.0254 14.6677C41.3008 14.6677 45.5995 18.8371 45.5995 23.9619V25.3338H45.8561C51.5955 25.3338 56.2656 29.9607 56.2656 35.6489V47.0171C56.2656 52.7053 51.5955 57.3322 45.8561 57.3322H26.1438C20.4045 57.3322 15.7344 52.7053 15.7344 47.0171V35.6489C15.7344 29.9607 20.4045 25.3338 26.1438 25.3338H26.4005Z" fill="white"/>
<path d="M41.898 41.7428H37.3314V46.2699C37.3314 46.9988 36.7353 47.5897 36 47.5897C35.2648 47.5897 34.6687 46.9988 34.6687 46.2699V41.7428H30.1021C29.4162 41.6724 28.895 41.0995 28.895 40.416C28.895 39.7324 29.4162 39.1595 30.1021 39.0891H34.6544V34.5762C34.7254 33.8963 35.3034 33.3796 35.9929 33.3796C36.6824 33.3796 37.2604 33.8963 37.3314 34.5762V39.0891H41.898C42.5839 39.1595 43.1051 39.7324 43.1051 40.416C43.1051 41.0995 42.5839 41.6724 41.898 41.7428V41.7428Z" fill="white"/>
</svg>
