<svg width="72" height="72" viewBox="0 0 72 72" fill="none" xmlns="http://www.w3.org/2000/svg">
<rect width="72" height="72" fill="#302C3F"/>
<path d="M38.2846 18.2885L42.7376 27.2371C43.0657 27.8854 43.6918 28.3356 44.4139 28.4357L54.4161 29.8924C55.0002 29.9744 55.5303 30.2826 55.8884 30.7528C56.2425 31.2171 56.3945 31.8054 56.3085 32.3837C56.2385 32.8639 56.0124 33.3081 55.6664 33.6483L48.4188 40.6739C47.8887 41.1641 47.6486 41.8905 47.7767 42.6009L49.5611 52.4779C49.7511 53.6705 48.9609 54.7951 47.7767 55.0212C47.2886 55.0992 46.7885 55.0172 46.3484 54.7931L37.4265 50.1447C36.7643 49.8105 35.9821 49.8105 35.32 50.1447L26.3981 54.7931C25.3018 55.3754 23.9436 54.9792 23.3334 53.8986C23.1074 53.4684 23.0274 52.9781 23.1014 52.4999L24.8858 42.6209C25.0138 41.9125 24.7717 41.1821 24.2436 40.6919L16.9961 33.6703C16.1339 32.8379 16.1079 31.4672 16.9381 30.6048C16.9561 30.5868 16.9761 30.5668 16.9961 30.5467C17.3401 30.1966 17.7922 29.9744 18.2803 29.9164L28.2825 28.4577C29.0026 28.3556 29.6288 27.9094 29.9588 27.2571L34.2518 18.2885C34.6339 17.5201 35.426 17.0419 36.2862 17.0619H36.5543C37.3004 17.1519 37.9506 17.6142 38.2846 18.2885" fill="white"/>
<path d="M36.3161 49.8955C35.9287 49.9075 35.5512 50.0116 35.2118 50.1978L26.3335 54.8356C25.2471 55.354 23.9472 54.9517 23.3381 53.9128C23.1124 53.4885 23.0306 53.0021 23.1065 52.5257L24.8797 42.6676C24.9995 41.951 24.7599 41.2224 24.2387 40.718L16.9879 33.6982C16.1272 32.8555 16.1113 31.4724 16.954 30.6097C16.9659 30.5977 16.9759 30.5877 16.9879 30.5777C17.3314 30.2374 17.7747 30.0132 18.252 29.9432L28.2625 28.4699C28.9874 28.3779 29.6164 27.9255 29.9359 27.269L34.2872 18.1875C34.7006 17.4549 35.4933 17.0186 36.332 17.0646C36.3161 17.6591 36.3161 49.4912 36.3161 49.8955" fill="white"/>
</svg>
