<svg width="111" height="111" viewBox="0 0 111 111" fill="none" xmlns="http://www.w3.org/2000/svg">
<rect width="111" height="111" fill="#302C3F"/>
<path opacity="0.4" d="M83.7208 66.053C83.7208 73.8261 77.4801 80.1225 69.707 80.1504H69.6792H42.0695C34.3243 80.1504 28 73.8818 28 66.1087V66.0809C28 66.0809 28.0167 53.7499 28.039 47.5481C28.0418 46.3836 29.3791 45.7316 30.2901 46.456C36.9098 51.7077 48.7477 61.2833 48.8953 61.4087C50.8734 62.9939 53.3808 63.8883 55.944 63.8883C58.5072 63.8883 61.0146 62.9939 62.9927 61.378C63.1403 61.2805 74.7136 51.9919 81.4335 46.6538C82.3473 45.9267 83.6902 46.5786 83.693 47.7404C83.7208 53.8947 83.7208 66.053 83.7208 66.053" fill="white"/>
<path d="M82.2647 37.4499C79.852 32.9031 75.1046 30 69.878 30H42.0733C36.8467 30 32.0992 32.9031 29.6865 37.4499C29.146 38.4668 29.4024 39.7344 30.3023 40.4532L50.9886 56.9995C52.4374 58.1697 54.1926 58.7519 55.9478 58.7519C55.9589 58.7519 55.9673 58.7519 55.9756 58.7519C55.984 58.7519 55.9951 58.7519 56.0035 58.7519C57.7587 58.7519 59.5139 58.1697 60.9626 56.9995L81.649 40.4532C82.5489 39.7344 82.8052 38.4668 82.2647 37.4499" fill="white"/>
</svg>
