<svg width="40" height="40" viewBox="0 0 40 40" fill="none" xmlns="http://www.w3.org/2000/svg">
<rect width="40" height="40" fill="#302C3F"/>
<path opacity="0.4" d="M22.7503 13.5512C22.2743 13.4632 21.8371 13.767 21.7464 14.2317C21.6558 14.6964 21.9605 15.1501 22.4236 15.241C23.8179 15.5128 24.8945 16.5921 25.1673 17.9911V17.9921C25.245 18.3948 25.5996 18.6876 26.0079 18.6876C26.0627 18.6876 26.1174 18.6826 26.1732 18.6726C26.6363 18.5797 26.941 18.127 26.8504 17.6613C26.4431 15.5718 24.8347 13.9579 22.7503 13.5512" fill="white"/>
<path opacity="0.4" d="M22.6879 10.0692C22.4648 10.0372 22.2407 10.1032 22.0625 10.2451C21.8792 10.389 21.7647 10.5968 21.7398 10.8297C21.687 11.3004 22.0266 11.7261 22.4967 11.779C25.7383 12.1408 28.258 14.6661 28.6225 17.9178C28.6713 18.3535 29.0368 18.6823 29.473 18.6823C29.5058 18.6823 29.5377 18.6803 29.5706 18.6763C29.7986 18.6513 30.0018 18.5384 30.1452 18.3585C30.2876 18.1786 30.3523 17.9548 30.3264 17.726C29.8723 13.6687 26.7322 10.5199 22.6879 10.0692" fill="white"/>
<path d="M25.9367 22.7343C25.2884 22.5964 24.7755 22.8961 24.3214 23.158C23.8563 23.4278 22.9709 24.1423 22.465 23.9584C19.8697 22.8951 17.4287 20.6317 16.3721 18.0375C16.1858 17.5208 16.8999 16.6344 17.1678 16.1668C17.4297 15.7131 17.7245 15.1964 17.5901 14.5469C17.4686 13.9623 15.897 11.9707 15.3413 11.426C14.9738 11.0663 14.5994 10.8684 14.214 10.8354C12.7649 10.7745 11.1466 12.7001 10.8627 13.1608C10.1507 14.1432 10.1557 15.4503 10.8747 17.0352C12.6076 21.2922 19.1616 27.7168 23.4519 29.5076C24.2427 29.8764 24.9677 30.0612 25.618 30.0612C26.2544 30.0612 26.8211 29.8843 27.3081 29.5336C27.6746 29.3227 29.6883 27.6309 29.6345 26.1489C29.6036 25.7712 29.4054 25.3934 29.0489 25.0277C28.5051 24.4691 26.5193 22.8572 25.9367 22.7343" fill="white"/>
</svg>
