<svg width="72" height="72" viewBox="0 0 72 72" fill="none" xmlns="http://www.w3.org/2000/svg">
<rect width="72" height="72" fill="#302C3F"/>
<path opacity="0.4" fill-rule="evenodd" clip-rule="evenodd" d="M42.4856 21.6157C42.4856 26.0577 46.0918 29.6587 50.5403 29.6587C51.0301 29.6563 51.5187 29.6092 52 29.5182V45.4636C52 52.1718 48.043 56.1406 41.3249 56.1406H26.6927C19.957 56.1406 16 52.1718 16 45.4636V30.8528C16 24.1445 19.957 20.1406 26.6927 20.1406H42.6263C42.5317 20.6266 42.4846 21.1207 42.4856 21.6157ZM38.3004 41.9338L44.0161 34.5582V34.5231C44.5054 33.8656 44.3806 32.9384 43.7347 32.4333C43.4221 32.192 43.0249 32.0875 42.6338 32.1438C42.2427 32.2001 41.8911 32.4122 41.6595 32.7319L36.8407 38.9309L31.3537 34.6109C31.0404 34.3668 30.6419 34.2591 30.2481 34.3119C29.8543 34.3648 29.4984 34.5738 29.2608 34.8919L23.3517 42.5133C23.144 42.7722 23.0322 43.0948 23.0351 43.4265C23.0009 44.0969 23.4242 44.7059 24.0652 44.9082C24.7062 45.1106 25.4032 44.8553 25.7611 44.287L30.7029 37.8948L36.19 42.1972C36.5021 42.4488 36.9032 42.5629 37.3013 42.5132C37.6993 42.4635 38.0599 42.2544 38.3004 41.9338Z" fill="white"/>
<circle cx="51" cy="21.1406" r="5" fill="white"/>
</svg>
