<svg width="72" height="72" viewBox="0 0 72 72" fill="none" xmlns="http://www.w3.org/2000/svg">
<rect width="72" height="72" fill="#302C3F"/>
<path opacity="0.4" d="M38.2119 47.6786C38.2119 48.7681 39.1071 49.6502 40.2129 49.6502L49.8791 50.1937C51.2883 50.1937 52.4292 49.0671 52.4292 47.6786C52.4292 46.29 51.2883 45.1659 49.8791 45.1659L40.2129 45.7069C39.1071 45.7069 38.2119 46.589 38.2119 47.6786" fill="white"/>
<path d="M18.7538 44.9863C18.7538 44.9863 18.172 45.5521 17.9188 45.903C17.5276 46.4119 17.332 47.0395 17.332 47.6646C17.332 48.3662 17.5527 49.0185 17.9689 49.5497C18.0667 49.6461 18.4353 50.0562 18.7788 50.3947C20.7873 52.5195 26.0304 55.9957 28.776 57.0581C29.1923 57.2261 30.2454 57.5893 30.8096 57.6116C31.3462 57.6116 31.8627 57.493 32.3517 57.2509C32.9635 56.9124 33.4549 56.3812 33.7232 55.7536C33.8962 55.3188 34.1645 54.0167 34.1645 53.992C34.4354 52.5664 34.5808 50.2489 34.5808 47.6893C34.5808 45.2507 34.4354 43.0295 34.2147 41.5817C34.1896 41.557 33.9213 39.9412 33.6254 39.3853C33.0863 38.3723 32.0332 37.7423 30.9074 37.7423H30.8096C30.0749 37.767 28.5303 38.397 28.5303 38.4192C25.9326 39.4816 20.8124 42.7899 18.7538 44.9863" fill="white"/>
<path opacity="0.4" d="M34.4519 25.3224C34.4519 24.2328 33.5567 23.3507 32.4509 23.3507L22.7845 22.8097C21.3753 22.8097 20.2344 23.9338 20.2344 25.3224C20.2344 26.7109 21.3753 27.8375 22.7845 27.8375L32.4509 27.294C33.5567 27.294 34.4519 26.4119 34.4519 25.3224" fill="white"/>
<path d="M40.3122 15.7509C39.7003 16.0894 39.2114 16.6206 38.9406 17.2482C38.7676 17.683 38.4993 18.9875 38.4993 19.0098C38.2284 20.4354 38.083 22.7529 38.083 25.3125C38.083 27.7511 38.2284 29.9722 38.4491 31.4201C38.4742 31.4448 38.745 33.0606 39.0384 33.6165C39.5775 34.632 40.6306 35.2595 41.759 35.2595H41.8568C42.5915 35.2348 44.1336 34.6073 44.1336 34.5826C46.7314 33.5202 51.8542 30.2144 53.9104 28.0154C53.9104 28.0154 54.4921 27.4497 54.7429 27.0988C55.1365 26.5923 55.3321 25.9648 55.3321 25.3347C55.3321 24.6355 55.1115 23.9857 54.6952 23.4521C54.5974 23.3557 54.2288 22.9456 53.8878 22.6071C51.8768 20.4848 46.6336 17.006 43.8904 15.9461C43.4741 15.7756 42.4185 15.4124 41.8568 15.3902C41.3177 15.3902 40.8011 15.5088 40.3122 15.7509" fill="white"/>
</svg>
