<svg width="40" height="40" viewBox="0 0 40 40" fill="none" xmlns="http://www.w3.org/2000/svg">
<rect width="40" height="40" fill="#302C3F"/>
<path opacity="0.4" d="M30.8082 24.2584C30.8082 27.2736 28.3873 29.7161 25.3721 29.7269H25.3612H14.6511C11.6466 29.7269 9.19336 27.2953 9.19336 24.28V24.2692C9.19336 24.2692 9.19984 19.4858 9.20849 17.0801C9.20957 16.6283 9.72833 16.3755 10.0817 16.6564C12.6496 18.6936 17.2416 22.4082 17.2989 22.4568C18.0662 23.0717 19.0389 23.4186 20.0332 23.4186C21.0275 23.4186 22.0001 23.0717 22.7675 22.4449C22.8247 22.4071 27.3141 18.8039 29.9209 16.7332C30.2754 16.4511 30.7963 16.704 30.7974 17.1547C30.8082 19.542 30.8082 24.2584 30.8082 24.2584" fill="white"/>
<path d="M30.2431 13.1629C29.3072 11.3991 27.4656 10.2729 25.4382 10.2729H14.6524C12.6249 10.2729 10.7833 11.3991 9.84739 13.1629C9.63772 13.5573 9.73715 14.0491 10.0862 14.3279L18.1107 20.7464C18.6727 21.2003 19.3536 21.4262 20.0345 21.4262C20.0388 21.4262 20.042 21.4262 20.0453 21.4262C20.0485 21.4262 20.0528 21.4262 20.0561 21.4262C20.7369 21.4262 21.4178 21.2003 21.9798 20.7464L30.0043 14.3279C30.3534 14.0491 30.4528 13.5573 30.2431 13.1629" fill="white"/>
</svg>
