<svg width="72" height="72" viewBox="0 0 72 72" fill="none" xmlns="http://www.w3.org/2000/svg">
<rect width="72" height="72" fill="#302C3F"/>
<path d="M58.3212 44.9279H56.6472C56.4992 44.9279 56.3573 44.8691 56.2526 44.7644C56.148 44.6598 56.0892 44.5179 56.0892 44.3699V21.8648C56.0874 20.2866 55.4597 18.7735 54.3437 17.6576C53.2278 16.5416 51.7147 15.9139 50.1365 15.9121H21.8662C20.2879 15.9133 18.7745 16.5408 17.6584 17.6569C16.5423 18.773 15.9147 20.2864 15.9136 21.8648V44.3699C15.9136 44.5179 15.8548 44.6598 15.7501 44.7644C15.6455 44.8691 15.5036 44.9279 15.3556 44.9279H13.6816C13.0826 44.9274 12.4945 45.0876 11.9785 45.3919C11.4626 45.6961 11.0377 46.1331 10.7482 46.6575C10.4586 47.1818 10.3151 47.7742 10.3325 48.3729C10.3498 48.9717 10.5275 49.5547 10.847 50.0614C12.0047 51.9117 13.6152 53.4361 15.5261 54.4906C17.4371 55.5451 19.5854 56.0948 21.768 56.0878H50.2347C52.417 56.0948 54.5651 55.5451 56.4757 54.4906C58.3863 53.4361 59.9964 51.9116 61.1536 50.0614C61.4729 49.5549 61.6506 48.972 61.6681 48.3735C61.6855 47.775 61.5422 47.1827 61.2529 46.6585C60.9636 46.1342 60.5391 45.6971 60.0234 45.3927C59.5078 45.0883 58.92 44.9278 58.3212 44.9279ZM21.8662 20.3761H50.1365C50.5314 20.3761 50.91 20.5329 51.1892 20.8121C51.4684 21.0913 51.6252 21.47 51.6252 21.8648V44.3699C51.6252 44.5179 51.5665 44.6598 51.4618 44.7644C51.3572 44.8691 51.2152 44.9279 51.0673 44.9279H45.5096C44.8885 44.93 44.2801 45.1037 43.7516 45.4299C43.223 45.756 42.7948 46.2218 42.5143 46.7759C41.7275 47.7139 40.7216 48.4434 39.5855 48.8997C38.4494 49.356 37.2184 49.525 36.0014 49.3918C34.7846 49.5249 33.5538 49.356 32.4178 48.9001C31.2818 48.4443 30.2757 47.7155 29.4885 46.7782C29.2124 46.2204 28.7853 45.7512 28.2557 45.4241C27.7262 45.097 27.1155 44.9251 26.4931 44.9279H20.9355C20.7875 44.9279 20.6456 44.8691 20.541 44.7644C20.4363 44.6598 20.3775 44.5179 20.3775 44.3699V21.8648C20.3775 21.47 20.5344 21.0913 20.8136 20.8121C21.0927 20.5329 21.4714 20.3761 21.8662 20.3761V20.3761Z" fill="white" fill-opacity="0.4"/>
</svg>
