<svg width="72" height="72" viewBox="0 0 72 72" fill="none" xmlns="http://www.w3.org/2000/svg">
<rect width="72" height="72" fill="#302C3F"/>
<path opacity="0.4" d="M59.7667 41.8059C56.494 54.663 43.1991 62.4877 30.071 59.2815C16.9484 56.076 8.95974 43.0531 12.2339 30.1968C15.505 17.3381 28.8 9.51272 41.9242 12.7182C55.0514 15.9237 63.0393 28.948 59.7667 41.8059Z" fill="white"/>
<path d="M46.7707 32.5239C47.2591 29.2665 44.7733 27.5154 41.3743 26.3473L42.2342 22.9061C42.3682 22.3698 42.0417 21.8266 41.5053 21.6932L40.7542 21.5064C40.2186 21.3733 39.6765 21.6991 39.5427 22.2345L38.7114 25.5616C38.0037 25.3857 37.2768 25.2197 36.5545 25.0552L37.3928 21.7019C37.5269 21.1657 37.2005 20.6224 36.6641 20.4889L35.9143 20.3024C35.3788 20.1692 34.8366 20.4949 34.7027 21.0302L33.8417 24.4723C33.2559 24.3391 32.6809 24.2076 32.1227 24.0691L32.1257 24.0553L29.383 23.3721C28.8473 23.2386 28.3048 23.5645 28.1711 24.1002L27.8205 25.5044C27.7527 25.776 27.9207 26.0504 28.1934 26.114C28.782 26.2513 29.6806 26.4651 29.6522 26.4842C30.7425 26.7558 30.9396 27.4756 30.9066 28.0463L29.6507 33.0731C29.7258 33.0922 29.8232 33.1198 29.9305 33.1626C29.8408 33.1404 29.745 33.116 29.6461 33.0922L27.8856 40.1341C27.7522 40.4645 27.4141 40.9603 26.6519 40.7721C26.6702 40.7986 25.7573 40.5633 25.1722 40.4103C24.9075 40.3411 24.636 40.4967 24.5625 40.7603L24.1002 42.417C23.952 42.9482 24.2618 43.4991 24.7926 43.6484L26.862 44.2306C27.5137 44.3936 28.1524 44.5642 28.7812 44.7248L27.9094 48.2169C27.7756 48.753 28.1019 49.296 28.6381 49.4295L29.3866 49.6158C29.9222 49.7492 30.4645 49.4233 30.5983 48.8879L31.4594 45.4416C32.194 45.6405 32.9071 45.8241 33.6048 45.997L32.7483 49.4204C32.6142 49.9567 32.9406 50.5002 33.4771 50.6336L34.2282 50.8203C34.7637 50.9534 35.3058 50.6277 35.4396 50.0925L36.3114 46.6067C40.902 47.4734 44.3539 47.1238 45.8069 42.9814C46.9777 39.646 45.7486 37.722 43.3333 36.4674C45.0923 36.0627 46.4172 34.9084 46.7707 32.5239ZM40.6198 41.1293C39.9045 43.9972 35.643 43.0661 33.3023 42.4614C32.7667 42.323 32.4432 41.7739 32.5774 41.2373L33.5703 37.266C33.7041 36.7306 34.2463 36.3974 34.7846 36.5193C37.1421 37.0531 41.3678 38.1371 40.6198 41.1293ZM41.4525 32.4757C40.8174 35.0139 37.4347 34.3498 35.4564 33.8437C34.9209 33.7067 34.5976 33.1552 34.7316 32.619L35.587 29.1966C35.7208 28.6613 36.2643 28.3254 36.8024 28.4478C38.7937 28.9009 42.1141 29.8269 41.4525 32.4757Z" fill="white"/>
</svg>
