<svg width="72" height="72" viewBox="0 0 72 72" fill="none" xmlns="http://www.w3.org/2000/svg">
<rect width="72" height="72" fill="#302C3F"/>
<g opacity="0.8">
<path fill-rule="evenodd" clip-rule="evenodd" d="M32.6439 18.4243C31.2468 18.4243 30.0583 19.3951 29.7247 20.7036H40.9429C40.6093 19.3951 39.4207 18.4243 38.0237 18.4243H32.6439ZM44.1115 20.7036H48.2402C52.619 20.7036 56.1847 24.3126 56.1847 28.7446C56.1847 28.7446 56.0596 30.6209 56.0179 33.2337C56.0137 33.4405 55.9136 33.6431 55.7489 33.7655C54.7459 34.5063 53.8284 35.1184 53.745 35.1606C50.2836 37.4821 46.2613 39.1157 41.9763 39.9282C41.6969 39.9831 41.4216 39.8375 41.2798 39.5884C40.0788 37.5075 37.8351 36.1525 35.3329 36.1525C32.8474 36.1525 30.5829 37.4927 29.3463 39.5758C29.2025 39.8206 28.9314 39.962 28.6541 39.9092C24.4045 39.0946 20.3822 37.4631 16.9416 35.1817L14.9398 33.7887C14.773 33.6832 14.6688 33.4933 14.6688 33.2822C14.6062 32.2059 14.502 28.7446 14.502 28.7446C14.502 24.3126 18.0676 20.7036 22.4465 20.7036H26.5543C26.9505 17.6434 29.5152 15.2585 32.643 15.2585H38.0228C41.1505 15.2585 43.7153 17.6434 44.1115 20.7036ZM55.4763 37.7989L55.3929 37.8412C51.1808 40.6692 46.1138 42.5476 40.7966 43.3285C40.0459 43.434 39.2953 42.9486 39.0867 42.1888C38.628 40.4582 37.1475 39.3185 35.3751 39.3185H35.3543H35.3126C33.5402 39.3185 32.0597 40.4582 31.601 42.1888C31.3924 42.9486 30.6418 43.434 29.8911 43.3285C24.5739 42.5476 19.5069 40.6692 15.2948 37.8412C15.274 37.8201 15.0655 37.6934 14.8987 37.7989C14.711 37.9045 14.711 38.1577 14.711 38.1577L14.857 48.9213C14.857 53.3534 18.4018 56.9413 22.7806 56.9413H47.8862C52.2651 56.9413 55.8099 53.3534 55.8099 48.9213L55.9767 38.1577C55.9767 38.1577 55.9767 37.9045 55.789 37.7989C55.6848 37.7356 55.5597 37.7567 55.4763 37.7989ZM36.8976 46.6419C36.8976 47.5284 36.2095 48.2248 35.3337 48.2248C34.4788 48.2248 33.7699 47.5284 33.7699 46.6419V43.9194C33.7699 43.0541 34.4788 42.3365 35.3337 42.3365C36.2095 42.3365 36.8976 43.0541 36.8976 43.9194V46.6419Z" fill="white"/>
</g>
</svg>
