<svg width="72" height="72" viewBox="0 0 72 72" fill="none" xmlns="http://www.w3.org/2000/svg">
<rect y="0.00012207" width="72" height="72" fill="#302C3F"/>
<g opacity="0.8">
<path fill-rule="evenodd" clip-rule="evenodd" d="M45.933 17.8999C48.6299 17.8999 51.2243 18.9658 53.1328 20.8784C55.0434 22.787 56.1113 25.3612 56.1113 28.0561V43.9441C56.1113 49.5551 51.5461 54.1003 45.933 54.1003H26.065C20.4519 54.1003 15.8887 49.5551 15.8887 43.9441V28.0561C15.8887 22.4451 20.4318 17.8999 26.065 17.8999H45.933ZM49.1326 31.0528L49.2934 30.8919C49.7741 30.3086 49.7741 29.464 49.2713 28.8807C48.9918 28.5811 48.6077 28.3981 48.2074 28.3578C47.7851 28.3357 47.3829 28.4785 47.0792 28.7601L38.011 36.0001C36.8445 36.9675 35.1733 36.9675 33.9887 36.0001L24.9386 28.7601C24.3132 28.2975 23.4484 28.3578 22.9275 28.9008C22.3845 29.4438 22.3242 30.3086 22.7847 30.912L23.0482 31.1734L32.1988 38.3129C33.3251 39.1978 34.6906 39.6805 36.1205 39.6805C37.5464 39.6805 38.9361 39.1978 40.0603 38.3129L49.1326 31.0528Z" fill="white"/>
</g>
</svg>
