<svg width="226" height="243" viewBox="0 0 226 243" fill="none" xmlns="http://www.w3.org/2000/svg">
<g opacity="0.85">
<rect width="226" height="243" fill="#1D1A27"/>
<rect x="0.5" y="0.5" width="225" height="242" stroke="white" stroke-opacity="0.16"/>
</g>
<line opacity="0.2" x1="31.0703" y1="100.768" x2="31.0703" y2="157.964" stroke="white" stroke-width="2" stroke-linecap="round"/>
<line opacity="0.2" x1="54.1074" y1="104.25" x2="54.1074" y2="197.429" stroke="white" stroke-width="2" stroke-linecap="round"/>
<line opacity="0.2" x1="78.6787" y1="125.143" x2="78.6787" y2="209.036" stroke="white" stroke-width="2" stroke-linecap="round"/>
<line opacity="0.2" x1="101.714" y1="112.375" x2="101.714" y2="220.643" stroke="white" stroke-width="2" stroke-linecap="round"/>
<line opacity="0.2" x1="124.75" y1="54.3393" x2="124.75" y2="171.893" stroke="white" stroke-width="2" stroke-linecap="round"/>
<line opacity="0.2" x1="149.321" y1="79.875" x2="149.321" y2="219.482" stroke="white" stroke-width="2" stroke-linecap="round"/>
<line opacity="0.2" x1="172.357" y1="23" x2="172.357" y2="106.893" stroke="white" stroke-width="2" stroke-linecap="round"/>
<line opacity="0.2" x1="195.393" y1="67.1071" x2="195.393" y2="161.446" stroke="white" stroke-width="2" stroke-linecap="round"/>
<rect x="27" y="111.375" width="7.67858" height="24.375" rx="3.83929" fill="url(#paint0_linear)"/>
<rect x="50.0371" y="132.268" width="7.67858" height="46.4286" rx="3.83929" fill="url(#paint1_linear)"/>
<rect x="74.6074" y="160.125" width="7.67858" height="33.6607" rx="3.83929" fill="url(#paint2_linear)"/>
<rect x="97.6426" y="125.304" width="7.67858" height="53.3929" rx="3.83929" fill="url(#paint3_linear)"/>
<rect x="120.679" y="83.5179" width="7.67858" height="39.4643" rx="3.83929" fill="url(#paint4_linear)"/>
<rect x="145.25" y="89.3214" width="7.67858" height="61.5179" rx="3.83929" fill="url(#paint5_linear)"/>
<rect x="168.287" y="46.375" width="7.67858" height="25.5357" rx="3.83929" fill="url(#paint6_linear)"/>
<rect x="191.321" y="85.8393" width="7.67858" height="47.5893" rx="3.83929" fill="url(#paint7_linear)"/>
<defs>
<linearGradient id="paint0_linear" x1="31" y1="108.5" x2="46.2503" y2="132.708" gradientUnits="userSpaceOnUse">
<stop stop-color="#88F96D"/>
<stop offset="1" stop-color="#66E773"/>
</linearGradient>
<linearGradient id="paint1_linear" x1="53.9997" y1="132" x2="54.0585" y2="179" gradientUnits="userSpaceOnUse">
<stop stop-color="#E76666"/>
<stop offset="1" stop-color="#FA517D"/>
</linearGradient>
<linearGradient id="paint2_linear" x1="78.6074" y1="156.155" x2="101.731" y2="182.734" gradientUnits="userSpaceOnUse">
<stop stop-color="#88F96D"/>
<stop offset="1" stop-color="#66E773"/>
</linearGradient>
<linearGradient id="paint3_linear" x1="101.605" y1="124.996" x2="101.683" y2="179.045" gradientUnits="userSpaceOnUse">
<stop stop-color="#E76666"/>
<stop offset="1" stop-color="#FA517D"/>
</linearGradient>
<linearGradient id="paint4_linear" x1="124.679" y1="78.8631" x2="152.047" y2="105.696" gradientUnits="userSpaceOnUse">
<stop stop-color="#88F96D"/>
<stop offset="1" stop-color="#66E773"/>
</linearGradient>
<linearGradient id="paint5_linear" x1="149.213" y1="88.9665" x2="149.316" y2="151.241" gradientUnits="userSpaceOnUse">
<stop stop-color="#E76666"/>
<stop offset="1" stop-color="#FA517D"/>
</linearGradient>
<linearGradient id="paint6_linear" x1="172.287" y1="43.3631" x2="188.573" y2="68.0397" gradientUnits="userSpaceOnUse">
<stop stop-color="#88F96D"/>
<stop offset="1" stop-color="#66E773"/>
</linearGradient>
<linearGradient id="paint7_linear" x1="195.284" y1="85.5647" x2="195.346" y2="133.74" gradientUnits="userSpaceOnUse">
<stop stop-color="#E76666"/>
<stop offset="1" stop-color="#FA517D"/>
</linearGradient>
</defs>
</svg>
