<svg width="226" height="215" viewBox="0 0 226 215" fill="none" xmlns="http://www.w3.org/2000/svg">
<g opacity="0.85">
<rect width="226" height="215" fill="#1D1A27"/>
<rect x="0.5" y="0.5" width="225" height="214" stroke="white" stroke-opacity="0.16"/>
</g>
<rect x="158" y="46" width="50" height="8" rx="4" fill="url(#paint0_linear)"/>
<rect x="17" y="44" width="91" height="10" rx="5" fill="#302C3F"/>
<rect x="17" y="25" width="50" height="10" rx="5" fill="#57516E"/>
<path d="M35.127 149.561L33.5519 153.283C32.1666 156.556 29.283 158.956 25.8128 159.725C20.7842 160.839 17.2051 165.298 17.2051 170.448V187.5C17.2051 188.052 17.6528 188.5 18.2051 188.5H207.02C207.572 188.5 208.02 188.052 208.02 187.5V66L198.075 88.6707C195.968 93.4746 189.063 93.2052 187.337 88.2517C186.529 85.9326 184.342 84.3787 181.886 84.3787H174.811C171.181 84.3787 167.662 85.6344 164.852 87.9328L161.971 90.2886C159.331 92.4483 155.744 93.0489 152.544 91.8675C147.579 90.0345 142.066 92.5541 140.202 97.5077L136.403 107.608C134.798 111.874 129.312 113.041 126.109 109.798L122.558 106.201C121.553 105.184 119.864 105.365 119.098 106.572C118.455 107.585 117.123 107.905 116.09 107.295L114.323 106.251C112.375 105.1 109.87 105.638 108.566 107.487L105.024 112.508C103.208 115.083 100.047 116.349 96.9548 115.741C93.6438 115.089 90.2803 116.588 88.552 119.487L80.1587 133.563C78.6679 136.064 76.3116 137.97 73.5625 138.928C70.2579 140.08 66.5786 139.772 63.5264 138.061L59.6151 135.867C56.1492 133.923 51.7683 135.027 49.6385 138.382C48.6683 139.911 47.1771 141.035 45.4411 141.548L43.4414 142.138C39.6988 143.244 36.648 145.967 35.127 149.561Z" fill="url(#paint1_linear)"/>
<path d="M17 161.843L23.041 160.502C28.1251 159.373 32.3482 155.853 34.3741 151.055L34.9343 149.728C36.453 146.132 39.5031 143.405 43.2466 142.297L45.2664 141.699C46.9913 141.188 48.4724 140.069 49.435 138.549V138.549C51.5655 135.186 55.9687 134.099 59.4197 136.085L63.1758 138.247C66.1173 139.94 69.6397 140.302 72.8644 139.244L73.4682 139.046C76.6291 138.009 79.2901 135.831 80.932 132.938L88.4534 119.683C90.1297 116.729 93.5088 115.18 96.8411 115.838V115.838C99.8989 116.441 103.025 115.187 104.819 112.639L108.402 107.547C109.705 105.696 112.212 105.158 114.16 106.311L115.926 107.356C116.96 107.969 118.294 107.648 118.937 106.633V106.633C119.703 105.424 121.394 105.243 122.399 106.262L125.952 109.868C129.152 113.116 134.643 111.949 136.246 107.679L140.059 97.5206C141.858 92.7263 147.404 90.5339 151.996 92.8017L152.518 93.0599C156.56 95.0564 161.454 93.3593 163.393 89.289V89.289C164.503 86.9573 166.661 85.2968 169.199 84.8208L176.391 83.4724C179.767 82.8393 183.156 84.5162 184.7 87.5848V87.5848C187.629 93.405 196.009 93.1939 198.642 87.2336L208.02 66" stroke="url(#paint2_linear)" stroke-width="2.5" stroke-linecap="round" stroke-linejoin="round"/>
<defs>
<linearGradient id="paint0_linear" x1="156.026" y1="49.2" x2="208.011" y2="50.2823" gradientUnits="userSpaceOnUse">
<stop stop-color="#88F96D"/>
<stop offset="1" stop-color="#66E773"/>
</linearGradient>
<linearGradient id="paint1_linear" x1="60.4497" y1="90.3729" x2="59.9186" y2="184.721" gradientUnits="userSpaceOnUse">
<stop stop-color="#83DB73" stop-opacity="0.21"/>
<stop offset="1" stop-color="#83DB73" stop-opacity="0"/>
</linearGradient>
<linearGradient id="paint2_linear" x1="9.45973" y1="104.337" x2="208.139" y2="105.656" gradientUnits="userSpaceOnUse">
<stop stop-color="#88F96D"/>
<stop offset="1" stop-color="#66E773"/>
</linearGradient>
</defs>
</svg>
