<svg width="141" height="60" viewBox="0 0 141 60" fill="none" xmlns="http://www.w3.org/2000/svg">
<path d="M126.868 25.6698C128.554 25.6698 129.921 24.3029 129.921 22.6169C129.921 20.9308 128.554 19.564 126.868 19.564C125.182 19.564 123.815 20.9308 123.815 22.6169C123.815 24.3029 125.182 25.6698 126.868 25.6698Z" fill="#D9D7E6"/>
<path d="M83.2652 35.6344C84.763 35.6344 85.6267 34.5114 85.5693 33.4168C85.5408 32.8408 85.4828 32.4661 85.4254 32.1783C84.5037 28.2043 81.2785 25.2662 77.4477 25.2662C72.8976 25.2662 69.2112 29.3847 69.2112 34.4534C69.2112 39.5221 72.8976 43.6406 77.4477 43.6406C80.2993 43.6406 82.344 42.604 83.8128 40.9624C84.5327 40.1561 84.3888 38.9176 83.5245 38.3126C82.8046 37.823 81.9119 37.9959 81.2495 38.5429C80.616 39.0905 79.4066 40.1845 77.4477 40.1845C75.1442 40.1845 73.1859 38.1972 72.7537 35.5764H83.2652V35.6344ZM77.4192 28.7513C79.4924 28.7513 81.2784 30.3639 81.9409 32.5815H72.8976C73.56 30.3354 75.3455 28.7513 77.4192 28.7513ZM69.3841 27.0807C69.3841 26.2169 68.7506 25.5255 67.9443 25.3816C65.4384 25.0075 63.077 25.9287 61.7236 27.6282V27.3974C61.7236 26.3318 60.8594 25.6699 59.9956 25.6699C59.0449 25.6699 58.2676 26.4472 58.2676 27.3974V41.5094C58.2676 42.4311 58.9585 43.2374 59.8802 43.2949C60.8883 43.3523 61.7236 42.575 61.7236 41.5668V34.2805C61.7236 31.0553 64.1426 28.4056 67.4832 28.7803H67.8289C68.6927 28.7223 69.3841 27.9734 69.3841 27.0807V27.0807ZM128.596 28.9241C128.596 27.9734 127.818 27.1961 126.868 27.1961C125.917 27.1961 125.14 27.9734 125.14 28.9241V41.5668C125.14 42.5175 125.917 43.2949 126.868 43.2949C127.818 43.2949 128.596 42.5175 128.596 41.5668V28.9241V28.9241ZM102.906 19.3628C102.906 18.4121 102.129 17.6348 101.178 17.6348C100.228 17.6348 99.4509 18.4121 99.4509 19.3628V27.0522C98.2699 25.8712 96.8012 25.2952 95.0442 25.2952C90.4941 25.2952 86.8077 29.4137 86.8077 34.4824C86.8077 39.5511 90.4941 43.6696 95.0442 43.6696C96.8012 43.6696 98.2989 43.0646 99.4794 41.8835C99.6233 42.6904 100.344 43.2949 101.178 43.2949C102.129 43.2949 102.906 42.5175 102.906 41.5668V19.3628ZM95.0732 40.2419C92.4234 40.2419 90.2922 37.6792 90.2922 34.4824C90.2922 31.3146 92.4234 28.7223 95.0732 28.7223C97.7229 28.7223 99.8541 31.2856 99.8541 34.4824C99.8541 37.6792 97.6939 40.2419 95.0732 40.2419ZM120.935 19.3628C120.935 18.4121 120.158 17.6348 119.207 17.6348C118.257 17.6348 117.479 18.4121 117.479 19.3628V27.0522C116.299 25.8712 114.83 25.2952 113.073 25.2952C108.523 25.2952 104.836 29.4137 104.836 34.4824C104.836 39.5511 108.523 43.6696 113.073 43.6696C114.83 43.6696 116.327 43.0646 117.508 41.8835C117.652 42.6904 118.372 43.2949 119.207 43.2949C120.158 43.2949 120.935 42.5175 120.935 41.5668V19.3628ZM113.073 40.2419C110.423 40.2419 108.292 37.6792 108.292 34.4824C108.292 31.3146 110.423 28.7223 113.073 28.7223C115.723 28.7223 117.854 31.2856 117.854 34.4824C117.854 37.6792 115.723 40.2419 113.073 40.2419ZM137.351 41.5958V28.7513H138.877C139.684 28.7513 140.403 28.1463 140.461 27.311C140.519 26.4182 139.799 25.6699 138.935 25.6699H137.351V23.2505C137.351 22.3287 136.66 21.5224 135.738 21.465C134.73 21.4076 133.895 22.1849 133.895 23.193V25.6984H132.455C131.648 25.6984 130.929 26.3034 130.871 27.1387C130.813 28.0314 131.534 28.7803 132.397 28.7803H133.866V41.6248C133.866 42.575 134.644 43.3523 135.594 43.3523C136.602 43.2949 137.351 42.546 137.351 41.5958Z" fill="#D9D7E6"/>
<path d="M24.1339 54.2678C37.4627 54.2678 48.2678 43.4627 48.2678 30.1339C48.2678 16.8051 37.4627 6 24.1339 6C10.8051 6 0 16.8051 0 30.1339C0 43.4627 10.8051 54.2678 24.1339 54.2678Z" fill="#D9D7E6"/>
<path d="M40.2328 30.1336C40.2328 28.1753 38.6492 26.6201 36.7193 26.6201C35.7692 26.6201 34.9049 26.9943 34.2714 27.5993C31.8525 25.8712 28.5403 24.7482 24.854 24.6043L26.4666 17.0588L31.7081 18.1818C31.7661 19.5067 32.8601 20.5723 34.214 20.5723C35.5963 20.5723 36.7193 19.4492 36.7193 18.0664C36.7193 16.6841 35.5963 15.561 34.214 15.561C33.2348 15.561 32.3705 16.137 31.9674 16.9723L26.1214 15.7339C25.9485 15.7049 25.7757 15.7339 25.6603 15.8203C25.5164 15.9067 25.43 16.0506 25.4015 16.2235L23.6155 24.6328C19.8717 24.7482 16.5021 25.8712 14.0542 27.6283C13.3949 26.9986 12.5179 26.6478 11.6063 26.6491C9.64795 26.6491 8.09277 28.2327 8.09277 30.1626C8.09277 31.6023 8.95652 32.8118 10.1665 33.3594C10.1085 33.7045 10.0801 34.0503 10.0801 34.425C10.0801 39.8388 16.3872 44.2456 24.1631 44.2456C31.9389 44.2456 38.2461 39.8678 38.2461 34.425C38.2461 34.0792 38.2171 33.7045 38.1596 33.3594C39.3691 32.8118 40.2328 31.5734 40.2328 30.1336V30.1336ZM16.0989 32.639C16.0989 31.2566 17.222 30.1336 18.6048 30.1336C19.9871 30.1336 21.1102 31.2566 21.1102 32.639C21.1102 34.0213 19.9871 35.1448 18.6048 35.1448C17.222 35.1733 16.0989 34.0213 16.0989 32.639V32.639ZM30.1245 39.2918C28.3964 41.0198 25.1132 41.1352 24.1631 41.1352C23.1839 41.1352 19.9007 40.9908 18.2011 39.2918C17.9424 39.0325 17.9424 38.6293 18.2011 38.3701C18.4604 38.1113 18.8636 38.1113 19.1229 38.3701C20.2174 39.4646 22.5215 39.8388 24.1631 39.8388C25.8047 39.8388 28.1372 39.4646 29.2028 38.3701C29.462 38.1113 29.8652 38.1113 30.1245 38.3701C30.3548 38.6293 30.3548 39.0325 30.1245 39.2918ZM29.6634 35.1733C28.281 35.1733 27.158 34.0503 27.158 32.6679C27.158 31.2856 28.281 30.1626 29.6634 30.1626C31.0462 30.1626 32.1692 31.2856 32.1692 32.6679C32.1692 34.0213 31.0462 35.1733 29.6634 35.1733Z" fill="#13111A"/>
</svg>
